<?xml version="1.0" encoding="UTF-8"?>
<svg id="Layer_1" xmlns="http://www.w3.org/2000/svg" version="1.1" viewBox="0 0 298.1 69.3">
  <!-- Generator: Adobe Illustrator 29.0.1, SVG Export Plug-In . SVG Version: 2.1.0 Build 192)  -->
  <defs>
    <style>
      .st0 {
        fill: #e50914;
      }
    </style>
  </defs>
  <path class="st0" d="M12.7,28.2c5.8-.4,11.6-.8,17.5-1.2,0,3.1,0,6.1,0,9.2-5.8.5-11.6,1-17.5,1.6,0,6.5,0,13.1,0,19.6,7.3-1.1,14.6-2.1,21.9-3,0,3,0,6,0,9.1-11.6,1.7-23.1,3.6-34.6,5.8V0h34.8c0,3,0,6,0,9.1-7.3.2-14.7.3-22,.5,0,6.2,0,12.4,0,18.7Z"/>
  <path class="st0" d="M42.7,0h20.2c12.8,0,19,5.1,19,14.4,0,9.8,0,19.6-.1,29.4,0,9.3-6.3,14.8-19.1,16.2-6.7.7-13.4,1.6-20.2,2.5,0-20.8.2-41.6.2-62.4ZM55.4,8.7c0,14.5-.1,29-.2,43.4,2.4-.2,4.8-.5,7.2-.7,4.1-.4,6.5-2.1,6.5-6.3,0-10.3,0-20.6.1-30.8,0-4.2-2.4-5.7-6.5-5.7-2.4,0-4.8,0-7.2.1Z"/>
  <path class="st0" d="M90,0h12.8c0,18.9-.1,37.7-.2,56.6-4.3.2-8.5.5-12.8.9,0-19.2.1-38.3.2-57.5Z"/>
  <path class="st0" d="M108.3,0h39.4c0,2.6,0,5.3,0,7.9-4.4,0-8.9,0-13.3,0,0,15.8,0,31.6,0,47.5-4.3,0-8.5.2-12.8.3,0-15.9,0-31.8.1-47.8-4.4,0-8.9,0-13.3,0,0-2.7,0-5.4,0-8Z"/>
  <path class="st0" d="M166.1,24.6c5.5,0,11,.1,16.5.2,0,2.7,0,5.3,0,8-5.5-.1-11-.2-16.5-.3,0,7.6,0,15.3,0,22.9-4.3,0-8.5-.1-12.8-.2,0-18.4,0-36.8,0-55.3h33.8c0,2.7,0,5.3,0,8-7,0-14,0-21-.1,0,5.6,0,11.1,0,16.7Z"/>
  <path class="st0" d="M193.2,0h12.8c0,16.4.1,32.7.2,49.1,7,.4,14,.9,21,1.5,0,2.8,0,5.6,0,8.4-11.3-1.1-22.5-2-33.8-2.6,0-18.8-.1-37.7-.2-56.5Z"/>
  <path class="st0" d="M232.5,0h12.8c0,20.4.2,40.7.3,61.1-4.2-.5-8.5-1-12.8-1.5,0-19.9-.2-39.8-.3-59.7Z"/>
  <path class="st0" d="M297.1,0c-4.4,11.2-8.9,22-13.3,32.4,4.8,11.8,9.5,24.1,14.2,36.9-4.4-.8-8.9-1.7-13.3-2.4-3.4-9.4-6.9-18.6-10.3-27.5,0,0-.2,0-.2,0-3.4,8.3-6.9,16.3-10.3,24.2-4-.6-7.9-1.1-11.9-1.6,4.7-10,9.4-20.3,14.1-30.9-4.5-10.7-9-21-13.4-31h13.2c3.2,7.8,6.4,15.9,9.6,24.1,0,0,.2,0,.2,0,3.2-7.8,6.4-15.9,9.7-24.1h11.8Z"/>
</svg>