<svg width="20" height="10" viewBox="0 0 20 10" fill="none" xmlns="http://www.w3.org/2000/svg">
<path d="M5 7.81818V2H5.87784V4.52841H8.77841V2H9.65909V7.81818H8.77841V5.28125H5.87784V7.81818H5Z" fill="#B5B5B5"/>
<path d="M12.581 7.81818H10.6975V2H12.6407C13.2108 2 13.7003 2.11648 14.1094 2.34943C14.5185 2.58049 14.832 2.91288 15.0498 3.34659C15.2695 3.77841 15.3793 4.2964 15.3793 4.90057C15.3793 5.50663 15.2685 6.02746 15.0469 6.46307C14.8272 6.89867 14.5091 7.2339 14.0924 7.46875C13.6757 7.7017 13.1719 7.81818 12.581 7.81818ZM11.5753 7.05114H12.5327C12.9759 7.05114 13.3443 6.9678 13.6378 6.80114C13.9314 6.63258 14.1511 6.3892 14.2969 6.07102C14.4428 5.75095 14.5157 5.3608 14.5157 4.90057C14.5157 4.44413 14.4428 4.05682 14.2969 3.73864C14.153 3.42045 13.938 3.17898 13.652 3.0142C13.3661 2.84943 13.0109 2.76705 12.5867 2.76705H11.5753V7.05114Z" fill="#B5B5B5"/>
<path fill-rule="evenodd" clip-rule="evenodd" d="M1.4 0H18.4C19.1732 0 19.8 0.626802 19.8 1.4V8.4C19.8 9.1732 19.1732 9.8 18.4 9.8H1.4C0.626801 9.8 0 9.1732 0 8.4V1.4C0 0.626801 0.626801 0 1.4 0ZM1.4 0.4C0.847715 0.4 0.4 0.847715 0.4 1.4V8.4C0.4 8.95228 0.847715 9.4 1.4 9.4H18.4C18.9523 9.4 19.4 8.95228 19.4 8.4V1.4C19.4 0.847715 18.9523 0.4 18.4 0.4H1.4Z" fill="#B5B5B5"/>
</svg>
