<svg width="197" height="144" viewBox="0 0 197 144" fill="none" xmlns="http://www.w3.org/2000/svg">
<rect y="116" width="129" height="28" rx="3" fill="white"/>
<path d="M52.9482 135V124.091H55.2546V133.098H59.9315V135H52.9482ZM64.695 135.16C63.8534 135.16 63.1289 134.989 62.5217 134.648C61.918 134.304 61.4528 133.817 61.1261 133.189C60.7994 132.557 60.636 131.809 60.636 130.946C60.636 130.105 60.7994 129.366 61.1261 128.73C61.4528 128.095 61.9127 127.599 62.5057 127.244C63.1023 126.889 63.8019 126.712 64.6044 126.712C65.1442 126.712 65.6467 126.799 66.1119 126.973C66.5806 127.143 66.989 127.401 67.337 127.745C67.6886 128.089 67.962 128.523 68.1573 129.045C68.3526 129.563 68.4503 130.17 68.4503 130.866V131.49H61.5416V130.083H66.3143C66.3143 129.757 66.2433 129.467 66.1012 129.215C65.9592 128.963 65.7621 128.766 65.51 128.624C65.2614 128.478 64.972 128.406 64.6417 128.406C64.2972 128.406 63.9919 128.485 63.7255 128.645C63.4627 128.801 63.2568 129.013 63.1076 129.279C62.9585 129.542 62.8821 129.835 62.8786 130.158V131.495C62.8786 131.9 62.9531 132.25 63.1023 132.544C63.255 132.839 63.4698 133.066 63.7468 133.226C64.0238 133.386 64.3523 133.466 64.7323 133.466C64.9844 133.466 65.2152 133.43 65.4247 133.359C65.6343 133.288 65.8136 133.182 65.9627 133.04C66.1119 132.898 66.2255 132.724 66.3036 132.518L68.4024 132.656C68.2958 133.161 68.0774 133.601 67.7472 133.977C67.4205 134.35 66.9979 134.641 66.4794 134.851C65.9645 135.057 65.3697 135.16 64.695 135.16ZM73.1779 135.16C72.3398 135.16 71.6189 134.982 71.0152 134.627C70.4151 134.268 69.9534 133.771 69.6303 133.136C69.3107 132.5 69.1509 131.768 69.1509 130.941C69.1509 130.103 69.3124 129.368 69.6356 128.736C69.9623 128.1 70.4257 127.605 71.0259 127.25C71.626 126.891 72.3398 126.712 73.1672 126.712C73.881 126.712 74.506 126.841 75.0422 127.1C75.5784 127.36 76.0028 127.724 76.3153 128.192C76.6278 128.661 76.8 129.212 76.832 129.844H74.6906C74.6303 129.435 74.4705 129.107 74.2112 128.858C73.9556 128.606 73.62 128.48 73.2045 128.48C72.8529 128.48 72.5458 128.576 72.283 128.768C72.0237 128.956 71.8213 129.231 71.6757 129.593C71.5301 129.956 71.4573 130.394 71.4573 130.909C71.4573 131.431 71.5284 131.875 71.6704 132.241C71.816 132.607 72.0202 132.885 72.283 133.077C72.5458 133.269 72.8529 133.365 73.2045 133.365C73.4637 133.365 73.6963 133.311 73.9023 133.205C74.1118 133.098 74.284 132.944 74.419 132.741C74.5575 132.536 74.648 132.289 74.6906 132.001H76.832C76.7965 132.626 76.626 133.176 76.3206 133.652C76.0188 134.125 75.6015 134.494 75.0688 134.76C74.5362 135.027 73.9058 135.16 73.1779 135.16ZM82.1868 126.818V128.523H77.2596V126.818H82.1868ZM78.3782 124.858H80.6473V132.486C80.6473 132.695 80.6793 132.859 80.7432 132.976C80.8071 133.089 80.8959 133.169 81.0096 133.216C81.1267 133.262 81.2617 133.285 81.4144 133.285C81.5209 133.285 81.6274 133.276 81.734 133.258C81.8405 133.237 81.9222 133.221 81.979 133.21L82.3359 134.899C82.2223 134.934 82.0625 134.975 81.8565 135.021C81.6505 135.071 81.4002 135.101 81.1054 135.112C80.5586 135.133 80.0792 135.06 79.6672 134.893C79.2588 134.727 78.941 134.467 78.7137 134.116C78.4865 133.764 78.3746 133.32 78.3782 132.784V124.858ZM88.4617 131.516V126.818H90.7309V135H88.5523V133.514H88.467C88.2824 133.993 87.9752 134.379 87.5455 134.67C87.1194 134.961 86.5991 135.107 85.9848 135.107C85.4379 135.107 84.9567 134.982 84.5413 134.734C84.1258 134.485 83.8009 134.132 83.5665 133.674C83.3357 133.216 83.2185 132.667 83.2149 132.028V126.818H85.4841V131.623C85.4876 132.106 85.6173 132.488 85.8729 132.768C86.1286 133.049 86.4713 133.189 86.901 133.189C87.1744 133.189 87.4301 133.127 87.668 133.002C87.906 132.875 88.0977 132.686 88.2433 132.438C88.3925 132.189 88.4653 131.882 88.4617 131.516ZM92.096 135V126.818H94.2959V128.246H94.3811C94.5303 127.738 94.7806 127.354 95.1322 127.095C95.4838 126.832 95.8886 126.701 96.3467 126.701C96.4603 126.701 96.5828 126.708 96.7142 126.722C96.8456 126.737 96.961 126.756 97.0605 126.781V128.794C96.9539 128.762 96.8066 128.734 96.6183 128.709C96.4301 128.684 96.2579 128.672 96.1017 128.672C95.7678 128.672 95.4695 128.745 95.2068 128.89C94.9475 129.032 94.7416 129.231 94.5889 129.487C94.4397 129.743 94.3651 130.037 94.3651 130.371V135H92.096ZM101.131 135.16C100.29 135.16 99.5654 134.989 98.9582 134.648C98.3545 134.304 97.8893 133.817 97.5626 133.189C97.2359 132.557 97.0725 131.809 97.0725 130.946C97.0725 130.105 97.2359 129.366 97.5626 128.73C97.8893 128.095 98.3492 127.599 98.9422 127.244C99.5388 126.889 100.238 126.712 101.041 126.712C101.581 126.712 102.083 126.799 102.548 126.973C103.017 127.143 103.426 127.401 103.774 127.745C104.125 128.089 104.399 128.523 104.594 129.045C104.789 129.563 104.887 130.17 104.887 130.866V131.49H97.9781V130.083H102.751C102.751 129.757 102.68 129.467 102.538 129.215C102.396 128.963 102.199 128.766 101.946 128.624C101.698 128.478 101.408 128.406 101.078 128.406C100.734 128.406 100.428 128.485 100.162 128.645C99.8993 128.801 99.6933 129.013 99.5441 129.279C99.395 129.542 99.3186 129.835 99.3151 130.158V131.495C99.3151 131.9 99.3897 132.25 99.5388 132.544C99.6915 132.839 99.9064 133.066 100.183 133.226C100.46 133.386 100.789 133.466 101.169 133.466C101.421 133.466 101.652 133.43 101.861 133.359C102.071 133.288 102.25 133.182 102.399 133.04C102.548 132.898 102.662 132.724 102.74 132.518L104.839 132.656C104.732 133.161 104.514 133.601 104.184 133.977C103.857 134.35 103.434 134.641 102.916 134.851C102.401 135.057 101.806 135.16 101.131 135.16Z" fill="black"/>
<path d="M41.4251 129.254C42.1112 129.634 42.1113 130.621 41.4251 131.002L24.9854 140.129C24.3188 140.499 23.5 140.017 23.5 139.254L23.5 121.001C23.5 120.239 24.3188 119.757 24.9854 120.127L41.4251 129.254Z" fill="black"/>
<circle cx="183" cy="130" r="13.5" fill="#D9D9D9" fill-opacity="0.06" stroke="#B5B5B5"/>
<path d="M183.864 122.046C182.908 121.807 182.02 122.53 181.956 123.466C181.884 124.517 181.726 125.482 181.528 126.056C181.403 126.416 181.049 127.069 180.488 127.695C179.931 128.318 179.206 128.873 178.357 129.105C177.685 129.288 177 129.87 177 130.72V134.721C177 135.566 177.682 136.185 178.448 136.266C179.518 136.38 180.012 136.681 180.516 136.989L180.564 137.019C180.836 137.184 181.142 137.367 181.534 137.503C181.931 137.639 182.395 137.72 183 137.72H186.5C187.437 137.72 188.099 137.243 188.434 136.656C188.596 136.379 188.683 136.065 188.688 135.744C188.688 135.592 188.665 135.432 188.611 135.28C188.812 135.017 188.991 134.702 189.099 134.379C189.209 134.049 189.271 133.617 189.103 133.23C189.172 133.1 189.223 132.961 189.262 132.827C189.339 132.557 189.375 132.259 189.375 131.97C189.375 131.682 189.339 131.385 189.262 131.114C189.228 130.989 189.182 130.868 189.124 130.752C189.299 130.503 189.412 130.215 189.452 129.914C189.493 129.612 189.461 129.305 189.358 129.018C189.152 128.426 188.676 127.918 188.158 127.746C187.311 127.464 186.355 127.47 185.642 127.535C185.494 127.548 185.346 127.565 185.199 127.585C185.544 126.099 185.523 124.552 185.137 123.076C185.07 122.84 184.94 122.626 184.762 122.456C184.584 122.286 184.364 122.167 184.125 122.111L183.864 122.046ZM186.5 136.721H183C182.49 136.721 182.137 136.652 181.86 136.557C181.579 136.46 181.354 136.329 181.084 136.164L181.044 136.14C180.489 135.801 179.846 135.409 178.554 135.272C178.221 135.236 178 134.982 178 134.722V130.72C178 130.466 178.226 130.177 178.62 130.07C179.715 129.77 180.597 129.074 181.234 128.362C181.869 127.652 182.298 126.887 182.472 126.384C182.715 125.684 182.879 124.616 182.954 123.534C182.979 123.172 183.314 122.94 183.621 123.016L183.883 123.082C184.043 123.122 184.141 123.225 184.171 123.337C184.579 124.893 184.529 126.534 184.026 128.062C183.998 128.147 183.992 128.238 184.011 128.326C184.03 128.413 184.072 128.494 184.133 128.56C184.194 128.626 184.271 128.674 184.357 128.7C184.443 128.726 184.534 128.728 184.621 128.706L184.624 128.705L184.638 128.702L184.696 128.688C185.038 128.616 185.384 128.563 185.732 128.531C186.395 128.471 187.189 128.477 187.842 128.695C188.017 128.753 188.292 128.995 188.412 129.345C188.519 129.653 188.499 130.015 188.146 130.367L187.793 130.72L188.146 131.074C188.189 131.117 188.251 131.215 188.3 131.389C188.348 131.556 188.375 131.759 188.375 131.97C188.375 132.182 188.348 132.384 188.3 132.552C188.25 132.726 188.189 132.824 188.146 132.867L187.793 133.22L188.146 133.574C188.193 133.621 188.255 133.751 188.151 134.062C188.043 134.364 187.871 134.639 187.646 134.867L187.293 135.22L187.646 135.574C187.652 135.579 187.687 135.624 187.687 135.744C187.681 135.891 187.64 136.033 187.566 136.16C187.401 136.448 187.063 136.721 186.5 136.721Z" fill="white"/>
<circle cx="149" cy="130" r="13.5" fill="#D9D9D9" fill-opacity="0.06" stroke="#B5B5B5"/>
<path d="M141.446 130H156.453M148.899 122.446L148.899 137.453" stroke="white" stroke-width="1.4"/>
<path d="M1.97491 0.97464L2.0502 23.0587C3.64565 22.7483 4.90027 22.7822 6.31629 22.6531V0.999995L1.97491 0.97464Z" fill="url(#paint0_linear_69_2)"/>
<path d="M9.70407 0.999995H14.0454L14.0956 23.008L9.67897 22.2727L9.70407 0.999995Z" fill="url(#paint1_linear_69_2)"/>
<path d="M2.0251 0.999995C2.12548 1.25354 9.5535 22.6024 9.5535 22.6024C10.7741 22.5935 12.4107 22.7949 14.0203 22.9827L6.29119 0.999995H2.0251Z" fill="#E50914"/>
<path d="M28.4929 9.78267C28.4588 9.43892 28.3125 9.17187 28.054 8.98153C27.7955 8.79119 27.4446 8.69602 27.0014 8.69602C26.7003 8.69602 26.446 8.73864 26.2386 8.82386C26.0313 8.90625 25.8722 9.02131 25.7614 9.16903C25.6534 9.31676 25.5994 9.48438 25.5994 9.67188C25.5938 9.82812 25.6264 9.96449 25.6974 10.081C25.7713 10.1974 25.8722 10.2983 26 10.3835C26.1278 10.4659 26.2756 10.5384 26.4432 10.6009C26.6108 10.6605 26.7898 10.7116 26.9801 10.7543L27.7642 10.9418C28.1449 11.027 28.4943 11.1406 28.8125 11.2827C29.1307 11.4247 29.4063 11.5994 29.6392 11.8068C29.8722 12.0142 30.0526 12.2585 30.1804 12.5398C30.3111 12.821 30.3778 13.1435 30.3807 13.5071C30.3778 14.0412 30.2415 14.5043 29.9716 14.8963C29.7045 15.2855 29.3182 15.5881 28.8125 15.804C28.3097 16.017 27.7031 16.1236 26.9929 16.1236C26.2884 16.1236 25.6747 16.0156 25.152 15.7997C24.6321 15.5838 24.2259 15.2642 23.9332 14.8409C23.6435 14.4148 23.4915 13.8878 23.4773 13.2599H25.2628C25.2827 13.5526 25.3665 13.7969 25.5142 13.9929C25.6648 14.1861 25.8651 14.3324 26.1151 14.4318C26.3679 14.5284 26.6534 14.5767 26.9716 14.5767C27.2841 14.5767 27.5554 14.5312 27.7855 14.4403C28.0185 14.3494 28.1989 14.223 28.3267 14.0611C28.4545 13.8991 28.5185 13.7131 28.5185 13.5028C28.5185 13.3068 28.4602 13.142 28.3438 13.0085C28.2301 12.875 28.0625 12.7614 27.8409 12.6676C27.6222 12.5739 27.3537 12.4886 27.0355 12.4119L26.0852 12.1733C25.3494 11.9943 24.7685 11.7145 24.3423 11.3338C23.9162 10.9531 23.7045 10.4403 23.7074 9.79545C23.7045 9.26705 23.8452 8.8054 24.1293 8.41051C24.4162 8.01562 24.8097 7.70739 25.3097 7.4858C25.8097 7.2642 26.3778 7.15341 27.0142 7.15341C27.6619 7.15341 28.2273 7.2642 28.7102 7.4858C29.196 7.70739 29.5739 8.01562 29.8438 8.41051C30.1136 8.8054 30.2528 9.26278 30.2614 9.78267H28.4929ZM36.6618 16V7.27273H42.5425V8.79403H38.507V10.8736H42.2399V12.3949H38.507V14.4787H42.5595V16H36.6618ZM38.9629 6.42898L39.8663 4.49006H41.5453L40.2456 6.42898H38.9629ZM49.0495 16V7.27273H52.4926C53.1517 7.27273 53.7142 7.39062 54.1801 7.62642C54.6489 7.85937 55.0054 8.19034 55.2497 8.61932C55.4969 9.04545 55.6205 9.54687 55.6205 10.1236C55.6205 10.7031 55.4955 11.2017 55.2455 11.6193C54.9955 12.0341 54.6333 12.3523 54.1588 12.5739C53.6872 12.7955 53.1162 12.9062 52.4458 12.9062H50.1404V11.4233H52.1475C52.4997 11.4233 52.7924 11.375 53.0253 11.2784C53.2583 11.1818 53.4316 11.0369 53.5452 10.8438C53.6617 10.6506 53.7199 10.4105 53.7199 10.1236C53.7199 9.83381 53.6617 9.58949 53.5452 9.39062C53.4316 9.19176 53.2568 9.04119 53.0211 8.93892C52.7881 8.83381 52.4941 8.78125 52.1389 8.78125H50.8946V16H49.0495ZM53.7625 12.0284L55.9316 16H53.8946L51.7725 12.0284H53.7625ZM63.8096 7.27273V16H61.9645V7.27273H63.8096ZM70.3677 16V7.27273H76.2484V8.79403H72.2129V10.8736H75.9459V12.3949H72.2129V14.4787H76.2655V16H70.3677Z" fill="white"/>
<defs>
<linearGradient id="paint0_linear_69_2" x1="6.80094" y1="10.3229" x2="11.2694" y2="5.27164" gradientUnits="userSpaceOnUse">
<stop stop-color="#B1060F"/>
<stop offset="0.546072" stop-color="#7B010C"/>
<stop offset="1" stop-color="#E50914" stop-opacity="0"/>
</linearGradient>
<linearGradient id="paint1_linear_69_2" x1="8.17162" y1="12.4886" x2="3.69313" y2="17.6069" gradientUnits="userSpaceOnUse">
<stop stop-color="#B1060F"/>
<stop offset="0.625007" stop-color="#7B010C"/>
<stop offset="1" stop-color="#B1060F" stop-opacity="0"/>
</linearGradient>
</defs>
</svg>
