<?xml version="1.0" encoding="UTF-8"?>
<svg id="Layer_1" data-name="Layer 1" xmlns="http://www.w3.org/2000/svg" viewBox="0 0 303.83 71.02">
  <defs>
    <style>
      .cls-1 {
        fill: #e50914;
      }
    </style>
  </defs>
  <path class="cls-1" d="M10.82,19.08c-.07,0-.14,0-.21,0-.02,16.72-.04,33.43-.06,50.15C7.03,69.81,3.51,70.4,0,71.02,0,47.35,0,23.67,0,0,4.94,0,9.88,0,14.82,0c3.95,13.68,7.88,26.99,11.81,39.96.07,0,.14-.01.21-.02.04-13.31.07-26.63.11-39.95C30.45,0,33.96,0,37.47,0c-.07,21.76-.15,43.52-.22,65.28-4.03.54-8.06,1.1-12.08,1.69-4.77-15.46-9.54-31.4-14.34-47.89Z"/>
  <path class="cls-1" d="M57.65,26.47c5.4-.25,10.81-.48,16.21-.69-.01,2.91-.02,5.83-.04,8.74-5.41.28-10.81.59-16.21.92-.03,6.13-.05,12.26-.08,18.4,6.8-.64,13.6-1.21,20.41-1.72-.01,2.9-.02,5.79-.04,8.69-10.75.93-21.49,2.06-32.2,3.38.08-21.4.16-42.79.24-64.19C56.69,0,67.42,0,78.16,0c-.01,2.9-.02,5.79-.04,8.69-6.8.08-13.6.18-20.4.29-.02,5.83-.05,11.67-.07,17.5Z"/>
  <path class="cls-1" d="M124.86,0c-4.13,9.4-8.28,18.86-12.43,28.43,4.38,9.93,8.77,19.78,13.17,29.59-4.17.13-8.34.29-12.5.48-3.18-7.57-6.35-15.18-9.51-22.85-.07,0-.14,0-.22,0-3.25,7.89-6.51,15.87-9.77,23.95-3.7.25-7.39.53-11.08.83,4.45-10.72,8.9-21.21,13.35-31.55C91.79,19.38,87.71,9.77,83.64,0,87.71,0,91.79,0,95.87,0c2.91,7.31,5.82,14.54,8.73,21.72.07,0,.14,0,.21,0C107.86,14.42,110.89,7.18,113.91,0,117.56,0,121.21,0,124.86,0Z"/>
  <path class="cls-1" d="M128.19,0C140.36,0,152.53,0,164.69,0c0,2.75,0,5.5,0,8.24-4.12,0-8.24-.01-12.35-.01,0,16.46,0,32.92,0,49.38-3.95,0-7.91.02-11.86.08.01-16.48.03-32.96.04-49.45-4.12,0-8.24.02-12.35.04,0-2.76,0-5.52.01-8.28Z"/>
  <path class="cls-1" d="M181.71,25.83c5.09.08,10.18.18,15.27.3,0,2.8.02,5.6.03,8.4-5.09-.16-10.18-.29-15.28-.39.02,8,.04,16,.05,24-3.95-.14-7.91-.25-11.86-.33-.03-19.27-.05-38.53-.08-57.8C180.26,0,190.67,0,201.09,0c0,2.81.02,5.62.03,8.43-6.48-.05-12.96-.1-19.44-.13.01,5.84.03,11.68.04,17.52Z"/>
  <path class="cls-1" d="M206.78,0C210.72,0,214.65,0,218.59,0c.07,17.21.14,34.42.21,51.63,6.49.43,12.97.93,19.45,1.49.01,2.95.03,5.9.04,8.85-10.42-1.05-20.85-1.91-31.29-2.58-.07-19.79-.14-39.59-.21-59.39Z"/>
  <path class="cls-1" d="M243.18,0C247.11,0,251.05,0,254.99,0c.08,21.28.17,42.56.25,63.84-3.93-.47-7.86-.92-11.8-1.34-.09-20.83-.17-41.67-.26-62.5Z"/>
  <path class="cls-1" d="M302.98,0c-4.11,11.47-8.21,22.6-12.3,33.43,4.41,12.14,8.79,24.65,13.15,37.59-4.11-.72-8.23-1.41-12.36-2.08-3.18-9.6-6.36-18.99-9.56-28.18-.07,0-.14-.01-.21-.02-3.19,8.6-6.37,17.03-9.55,25.29-3.67-.51-7.35-1-11.02-1.47,4.35-10.51,8.7-21.28,13.06-32.35C270.05,21.2,265.9,10.47,261.75,0,265.83,0,269.91,0,273.99,0c2.96,8.15,5.91,16.45,8.86,24.92.07,0,.14,0,.21.01C286.04,16.79,289.03,8.48,292.02,0c3.65,0,7.3,0,10.95,0Z"/>
</svg>