<svg width="197" height="144" viewBox="0 0 197 144" fill="none" xmlns="http://www.w3.org/2000/svg">
<rect y="115.025" width="129" height="28" rx="3" fill="white"/>
<path d="M52.9482 134.025V123.116H55.2546V132.124H59.9315V134.025H52.9482ZM64.695 134.185C63.8534 134.185 63.1289 134.015 62.5217 133.674C61.918 133.329 61.4528 132.843 61.1261 132.214C60.7994 131.582 60.636 130.835 60.636 129.972C60.636 129.13 60.7994 128.392 61.1261 127.756C61.4528 127.12 61.9127 126.625 62.5057 126.27C63.1023 125.915 63.8019 125.737 64.6044 125.737C65.1442 125.737 65.6467 125.824 66.1119 125.998C66.5806 126.169 66.989 126.426 67.337 126.77C67.6886 127.115 67.962 127.548 68.1573 128.07C68.3526 128.589 68.4503 129.196 68.4503 129.892V130.515H61.5416V129.109H66.3143C66.3143 128.782 66.2433 128.493 66.1012 128.241C65.9592 127.988 65.7621 127.791 65.51 127.649C65.2614 127.504 64.972 127.431 64.6417 127.431C64.2972 127.431 63.9919 127.511 63.7255 127.671C63.4627 127.827 63.2568 128.038 63.1076 128.305C62.9585 128.567 62.8821 128.86 62.8786 129.183V130.52C62.8786 130.925 62.9531 131.275 63.1023 131.57C63.255 131.865 63.4698 132.092 63.7468 132.252C64.0238 132.411 64.3523 132.491 64.7323 132.491C64.9844 132.491 65.2152 132.456 65.4247 132.385C65.6343 132.314 65.8136 132.207 65.9627 132.065C66.1119 131.923 66.2255 131.749 66.3036 131.543L68.4024 131.682C68.2958 132.186 68.0774 132.626 67.7472 133.003C67.4205 133.376 66.9979 133.667 66.4794 133.876C65.9645 134.082 65.3697 134.185 64.695 134.185ZM73.1779 134.185C72.3398 134.185 71.6189 134.008 71.0152 133.653C70.4151 133.294 69.9534 132.797 69.6303 132.161C69.3107 131.525 69.1509 130.794 69.1509 129.966C69.1509 129.128 69.3124 128.393 69.6356 127.761C69.9623 127.126 70.4257 126.63 71.0259 126.275C71.626 125.916 72.3398 125.737 73.1672 125.737C73.881 125.737 74.506 125.867 75.0422 126.126C75.5784 126.385 76.0028 126.749 76.3153 127.218C76.6278 127.687 76.8 128.237 76.832 128.869H74.6906C74.6303 128.461 74.4705 128.132 74.2112 127.884C73.9556 127.632 73.62 127.506 73.2045 127.506C72.8529 127.506 72.5458 127.601 72.283 127.793C72.0237 127.981 71.8213 128.257 71.6757 128.619C71.5301 128.981 71.4573 129.42 71.4573 129.934C71.4573 130.456 71.5284 130.9 71.6704 131.266C71.816 131.632 72.0202 131.911 72.283 132.102C72.5458 132.294 72.8529 132.39 73.2045 132.39C73.4637 132.39 73.6963 132.337 73.9023 132.23C74.1118 132.124 74.284 131.969 74.419 131.767C74.5575 131.561 74.648 131.314 74.6906 131.026H76.832C76.7965 131.651 76.626 132.202 76.3206 132.678C76.0188 133.15 75.6015 133.519 75.0688 133.786C74.5362 134.052 73.9058 134.185 73.1779 134.185ZM82.1868 125.844V127.548H77.2596V125.844H82.1868ZM78.3782 123.883H80.6473V131.511C80.6473 131.721 80.6793 131.884 80.7432 132.001C80.8071 132.115 80.8959 132.195 81.0096 132.241C81.1267 132.287 81.2617 132.31 81.4144 132.31C81.5209 132.31 81.6274 132.301 81.734 132.284C81.8405 132.262 81.9222 132.246 81.979 132.236L82.3359 133.924C82.2223 133.96 82.0625 134.001 81.8565 134.047C81.6505 134.096 81.4002 134.127 81.1054 134.137C80.5586 134.159 80.0792 134.086 79.6672 133.919C79.2588 133.752 78.941 133.493 78.7137 133.141C78.4865 132.79 78.3746 132.346 78.3782 131.809V123.883ZM88.4617 130.542V125.844H90.7309V134.025H88.5523V132.539H88.467C88.2824 133.019 87.9752 133.404 87.5455 133.695C87.1194 133.986 86.5991 134.132 85.9848 134.132C85.4379 134.132 84.9567 134.008 84.5413 133.759C84.1258 133.51 83.8009 133.157 83.5665 132.699C83.3357 132.241 83.2185 131.692 83.2149 131.053V125.844H85.4841V130.648C85.4876 131.131 85.6173 131.513 85.8729 131.794C86.1286 132.074 86.4713 132.214 86.901 132.214C87.1744 132.214 87.4301 132.152 87.668 132.028C87.906 131.9 88.0977 131.712 88.2433 131.463C88.3925 131.215 88.4653 130.907 88.4617 130.542ZM92.096 134.025V125.844H94.2959V127.271H94.3811C94.5303 126.763 94.7806 126.38 95.1322 126.121C95.4838 125.858 95.8886 125.726 96.3467 125.726C96.4603 125.726 96.5828 125.733 96.7142 125.748C96.8456 125.762 96.961 125.781 97.0605 125.806V127.82C96.9539 127.788 96.8066 127.759 96.6183 127.735C96.4301 127.71 96.2579 127.697 96.1017 127.697C95.7678 127.697 95.4695 127.77 95.2068 127.916C94.9475 128.058 94.7416 128.257 94.5889 128.512C94.4397 128.768 94.3651 129.063 94.3651 129.396V134.025H92.096ZM101.131 134.185C100.29 134.185 99.5654 134.015 98.9582 133.674C98.3545 133.329 97.8893 132.843 97.5626 132.214C97.2359 131.582 97.0725 130.835 97.0725 129.972C97.0725 129.13 97.2359 128.392 97.5626 127.756C97.8893 127.12 98.3492 126.625 98.9422 126.27C99.5388 125.915 100.238 125.737 101.041 125.737C101.581 125.737 102.083 125.824 102.548 125.998C103.017 126.169 103.426 126.426 103.774 126.77C104.125 127.115 104.399 127.548 104.594 128.07C104.789 128.589 104.887 129.196 104.887 129.892V130.515H97.9781V129.109H102.751C102.751 128.782 102.68 128.493 102.538 128.241C102.396 127.988 102.199 127.791 101.946 127.649C101.698 127.504 101.408 127.431 101.078 127.431C100.734 127.431 100.428 127.511 100.162 127.671C99.8993 127.827 99.6933 128.038 99.5441 128.305C99.395 128.567 99.3186 128.86 99.3151 129.183V130.52C99.3151 130.925 99.3897 131.275 99.5388 131.57C99.6915 131.865 99.9064 132.092 100.183 132.252C100.46 132.411 100.789 132.491 101.169 132.491C101.421 132.491 101.652 132.456 101.861 132.385C102.071 132.314 102.25 132.207 102.399 132.065C102.548 131.923 102.662 131.749 102.74 131.543L104.839 131.682C104.732 132.186 104.514 132.626 104.184 133.003C103.857 133.376 103.434 133.667 102.916 133.876C102.401 134.082 101.806 134.185 101.131 134.185Z" fill="black"/>
<path d="M41.4251 128.279C42.1112 128.66 42.1113 129.647 41.4251 130.028L24.9854 139.154C24.3188 139.524 23.5 139.042 23.5 138.28L23.5 120.027C23.5 119.264 24.3188 118.782 24.9854 119.153L41.4251 128.279Z" fill="black"/>
<circle cx="183" cy="129.025" r="13.5" fill="#D9D9D9" fill-opacity="0.06" stroke="#B5B5B5"/>
<path d="M183.864 121.071C182.908 120.832 182.02 121.555 181.956 122.491C181.884 123.542 181.726 124.507 181.528 125.081C181.403 125.441 181.049 126.094 180.488 126.72C179.931 127.343 179.206 127.898 178.357 128.13C177.685 128.313 177 128.895 177 129.745V133.746C177 134.591 177.682 135.21 178.448 135.291C179.518 135.405 180.012 135.706 180.516 136.014L180.564 136.044C180.836 136.209 181.142 136.392 181.534 136.528C181.931 136.664 182.395 136.745 183 136.745H186.5C187.437 136.745 188.099 136.268 188.434 135.681C188.596 135.404 188.683 135.09 188.688 134.769C188.688 134.617 188.665 134.457 188.611 134.305C188.812 134.042 188.991 133.727 189.099 133.404C189.209 133.074 189.271 132.642 189.103 132.255C189.172 132.125 189.223 131.986 189.262 131.852C189.339 131.582 189.375 131.284 189.375 130.995C189.375 130.707 189.339 130.41 189.262 130.139C189.228 130.015 189.182 129.893 189.124 129.777C189.299 129.528 189.412 129.241 189.452 128.939C189.493 128.637 189.461 128.33 189.358 128.043C189.152 127.451 188.676 126.943 188.158 126.771C187.311 126.489 186.355 126.495 185.642 126.56C185.494 126.574 185.346 126.591 185.199 126.61C185.544 125.125 185.523 123.577 185.137 122.101C185.07 121.865 184.94 121.651 184.762 121.481C184.584 121.312 184.364 121.193 184.125 121.136L183.864 121.071ZM186.5 135.746H183C182.49 135.746 182.137 135.677 181.86 135.582C181.579 135.485 181.354 135.354 181.084 135.189L181.044 135.165C180.489 134.826 179.846 134.434 178.554 134.297C178.221 134.261 178 134.007 178 133.747V129.745C178 129.491 178.226 129.202 178.62 129.095C179.715 128.795 180.597 128.099 181.234 127.387C181.869 126.677 182.298 125.912 182.472 125.409C182.715 124.709 182.879 123.641 182.954 122.559C182.979 122.197 183.314 121.965 183.621 122.041L183.883 122.107C184.043 122.147 184.141 122.25 184.171 122.362C184.579 123.918 184.529 125.559 184.026 127.087C183.998 127.172 183.992 127.264 184.011 127.351C184.03 127.439 184.072 127.52 184.133 127.586C184.194 127.651 184.271 127.7 184.357 127.725C184.443 127.751 184.534 127.753 184.621 127.731L184.624 127.73L184.638 127.727L184.696 127.713C185.038 127.641 185.384 127.589 185.732 127.556C186.395 127.496 187.189 127.502 187.842 127.72C188.017 127.778 188.292 128.02 188.412 128.37C188.519 128.678 188.499 129.04 188.146 129.392L187.793 129.745L188.146 130.099C188.189 130.142 188.251 130.24 188.3 130.414C188.348 130.581 188.375 130.784 188.375 130.995C188.375 131.207 188.348 131.409 188.3 131.577C188.25 131.751 188.189 131.849 188.146 131.892L187.793 132.245L188.146 132.599C188.193 132.646 188.255 132.776 188.151 133.087C188.043 133.389 187.871 133.664 187.646 133.892L187.293 134.245L187.646 134.599C187.652 134.604 187.687 134.649 187.687 134.769C187.681 134.916 187.64 135.059 187.566 135.185C187.401 135.473 187.063 135.746 186.5 135.746Z" fill="white"/>
<circle cx="149" cy="129.025" r="13.5" fill="#D9D9D9" fill-opacity="0.06" stroke="#B5B5B5"/>
<path d="M141.446 129.025H156.453M148.899 121.471L148.899 136.479" stroke="white" stroke-width="1.4"/>
<path d="M28.4929 8.80803C28.4588 8.46428 28.3125 8.19723 28.054 8.00689C27.7955 7.81655 27.4446 7.72138 27.0014 7.72138C26.7003 7.72138 26.446 7.764 26.2386 7.84922C26.0313 7.93161 25.8722 8.04667 25.7614 8.19439C25.6534 8.34212 25.5994 8.50974 25.5994 8.69724C25.5938 8.85349 25.6264 8.98985 25.6974 9.10633C25.7713 9.2228 25.8722 9.32366 26 9.40888C26.1278 9.49127 26.2756 9.56371 26.4432 9.62621C26.6108 9.68587 26.7898 9.73701 26.9801 9.77962L27.7642 9.96712C28.1449 10.0523 28.4943 10.166 28.8125 10.308C29.1307 10.4501 29.4063 10.6248 29.6392 10.8322C29.8722 11.0396 30.0526 11.2839 30.1804 11.5651C30.3111 11.8464 30.3778 12.1688 30.3807 12.5325C30.3778 13.0666 30.2415 13.5296 29.9716 13.9217C29.7045 14.3109 29.3182 14.6134 28.8125 14.8293C28.3097 15.0424 27.7031 15.1489 26.9929 15.1489C26.2884 15.1489 25.6747 15.041 25.152 14.8251C24.6321 14.6092 24.2259 14.2896 23.9332 13.8663C23.6435 13.4401 23.4915 12.9131 23.4773 12.2853H25.2628C25.2827 12.5779 25.3665 12.8222 25.5142 13.0183C25.6648 13.2114 25.8651 13.3577 26.1151 13.4572C26.3679 13.5538 26.6534 13.6021 26.9716 13.6021C27.2841 13.6021 27.5554 13.5566 27.7855 13.4657C28.0185 13.3748 28.1989 13.2484 28.3267 13.0864C28.4545 12.9245 28.5185 12.7384 28.5185 12.5282C28.5185 12.3322 28.4602 12.1674 28.3438 12.0339C28.2301 11.9004 28.0625 11.7867 27.8409 11.693C27.6222 11.5992 27.3537 11.514 27.0355 11.4373L26.0852 11.1987C25.3494 11.0197 24.7685 10.7398 24.3423 10.3592C23.9162 9.97848 23.7045 9.4657 23.7074 8.82081C23.7045 8.29241 23.8452 7.83076 24.1293 7.43587C24.4162 7.04099 24.8097 6.73275 25.3097 6.51116C25.8097 6.28956 26.3778 6.17877 27.0142 6.17877C27.6619 6.17877 28.2273 6.28956 28.7102 6.51116C29.196 6.73275 29.5739 7.04099 29.8438 7.43587C30.1136 7.83076 30.2528 8.28814 30.2614 8.80803H28.4929ZM36.6618 15.0254V6.29809H42.5425V7.81939H38.507V9.89894H42.2399V11.4202H38.507V13.5041H42.5595V15.0254H36.6618ZM38.9629 5.45434L39.8663 3.51542H41.5453L40.2456 5.45434H38.9629ZM49.0495 15.0254V6.29809H52.4926C53.1517 6.29809 53.7142 6.41598 54.1801 6.65178C54.6489 6.88473 55.0054 7.2157 55.2497 7.64468C55.4969 8.07081 55.6205 8.57223 55.6205 9.14894C55.6205 9.72848 55.4955 10.2271 55.2455 10.6447C54.9955 11.0595 54.6333 11.3776 54.1588 11.5992C53.6872 11.8208 53.1162 11.9316 52.4458 11.9316H50.1404V10.4487H52.1475C52.4997 10.4487 52.7924 10.4004 53.0253 10.3038C53.2583 10.2072 53.4316 10.0623 53.5452 9.86911C53.6617 9.67593 53.7199 9.43587 53.7199 9.14894C53.7199 8.85917 53.6617 8.61485 53.5452 8.41599C53.4316 8.21712 53.2568 8.06655 53.0211 7.96428C52.7881 7.85917 52.4941 7.80661 52.1389 7.80661H50.8946V15.0254H49.0495ZM53.7625 11.0538L55.9316 15.0254H53.8946L51.7725 11.0538H53.7625ZM63.8096 6.29809V15.0254H61.9645V6.29809H63.8096ZM70.3677 15.0254V6.29809H76.2484V7.81939H72.2129V9.89894H75.9459V11.4202H72.2129V13.5041H76.2655V15.0254H70.3677Z" fill="white"/>
<rect x="2" width="4" height="22" fill="#B1060F"/>
<rect x="10" width="4" height="22" fill="#B1060F"/>
<path d="M2 0H6L14 22H10L2 0Z" fill="#E50914"/>
</svg>
