<svg width="18" height="18" viewBox="0 0 18 18" fill="none" xmlns="http://www.w3.org/2000/svg">
<path d="M0 2C0 0.89543 0.895431 0 2 0H16C17.1046 0 18 0.895431 18 2V16C18 17.1046 17.1046 18 16 18H2C0.89543 18 0 17.1046 0 16V2Z" fill="#E50914"/>
<path d="M7.03145 9.07942V14.8893H5.72673V10.1035H5.68453L4 10.9716V10.0071L5.79004 9.07942H7.03145Z" fill="white"/>
<path d="M11.2253 15C10.6462 15 10.1491 14.8818 9.73416 14.6454C9.32153 14.4071 9.00385 14.0638 8.78112 13.6156C8.56073 13.1655 8.45054 12.6236 8.45054 11.9901C8.45289 11.3565 8.56425 10.8175 8.78463 10.373C9.00736 9.9267 9.32504 9.58628 9.73768 9.35176C10.1527 9.11724 10.6485 8.99999 11.2253 8.99999C11.802 8.99999 12.2979 9.11724 12.7129 9.35176C13.1278 9.58628 13.4455 9.9267 13.6659 10.373C13.8886 10.8194 14 11.3584 14 11.9901C14 12.6255 13.8886 13.1683 13.6659 13.6184C13.4455 14.0667 13.1278 14.409 12.7129 14.6454C12.3002 14.8818 11.8044 15 11.2253 15ZM11.2253 14.112C11.6754 14.112 12.0306 13.9333 12.2909 13.5759C12.5534 13.2165 12.6847 12.6879 12.6847 11.9901C12.6847 11.5286 12.6249 11.1409 12.5054 10.8269C12.3858 10.513 12.217 10.2766 11.999 10.1177C11.7809 9.95696 11.523 9.87658 11.2253 9.87658C10.7775 9.87658 10.4234 10.0563 10.1632 10.4156C9.90297 10.773 9.77167 11.2979 9.76933 11.9901C9.76698 12.4534 9.82442 12.843 9.94165 13.1589C10.0612 13.4747 10.23 13.713 10.4481 13.8737C10.6661 14.0326 10.9252 14.112 11.2253 14.112Z" fill="white"/>
<path d="M3 4.81749V4.05323H6.75944V4.81749H5.41073V7.94677H4.35088V4.81749H3Z" fill="white"/>
<path d="M11.0961 6C11.0961 6.42839 11.002 6.79151 10.8138 7.08935C10.6255 7.3872 10.3707 7.61344 10.0493 7.76806C9.72928 7.92269 9.37021 8 8.97204 8C8.57242 8 8.21262 7.92205 7.89264 7.76616C7.57265 7.61027 7.31855 7.38403 7.13032 7.08745C6.94355 6.78961 6.85016 6.42712 6.85016 6C6.85016 5.57161 6.94355 5.20849 7.13032 4.91065C7.31855 4.6128 7.57265 4.38657 7.89264 4.23194C8.21262 4.07731 8.57242 4 8.97204 4C9.37021 4 9.72928 4.07731 10.0493 4.23194C10.3707 4.38657 10.6255 4.6128 10.8138 4.91065C11.002 5.20849 11.0961 5.57161 11.0961 6ZM9.99714 6C9.99714 5.74651 9.95588 5.53232 9.87335 5.35741C9.79227 5.18251 9.67499 5.05006 9.52151 4.96008C9.36948 4.87009 9.18633 4.8251 8.97204 4.8251C8.7592 4.8251 8.57604 4.87009 8.42257 4.96008C8.26909 5.05006 8.15109 5.18251 8.06856 5.35741C7.98747 5.53232 7.94693 5.74651 7.94693 6C7.94693 6.25349 7.98747 6.46768 8.06856 6.64259C8.15109 6.81749 8.26909 6.94994 8.42257 7.03992C8.57604 7.12991 8.7592 7.1749 8.97204 7.1749C9.18633 7.1749 9.36948 7.12991 9.52151 7.03992C9.67499 6.94994 9.79227 6.81749 9.87335 6.64259C9.95588 6.46768 9.99714 6.25349 9.99714 6Z" fill="white"/>
<path d="M11.5403 7.94677V4.05323H13.3776C13.7107 4.05323 13.9981 4.11027 14.2399 4.22433C14.4831 4.33714 14.6706 4.49493 14.8024 4.69772C14.9341 4.89924 15 5.13371 15 5.40114C15 5.66984 14.9327 5.90494 14.798 6.10646C14.6648 6.30672 14.4744 6.46198 14.2268 6.57224C13.9792 6.68251 13.6853 6.73764 13.3451 6.73764H12.2114V5.9962H13.1453C13.3074 5.9962 13.4428 5.97148 13.5514 5.92205C13.6614 5.87262 13.7447 5.80355 13.8011 5.71483C13.8576 5.62484 13.8859 5.52028 13.8859 5.40114C13.8859 5.28074 13.8576 5.17681 13.8011 5.08935C13.7447 5.00063 13.6614 4.93219 13.5514 4.88403C13.4413 4.83587 13.306 4.81179 13.1453 4.81179H12.6153V7.94677H11.5403Z" fill="white"/>
</svg>
